<svg width="24" height="24" viewBox="0 0 24 24" fill="none" xmlns="http://www.w3.org/2000/svg">
<path d="M21 15V12C21 10.8181 20.7672 9.64778 20.3149 8.55585C19.8626 7.46392 19.1997 6.47177 18.364 5.63604C17.5282 4.80031 16.5361 4.13738 15.4442 3.68508C14.3522 3.23279 13.1819 3 12 3C10.8181 3 9.64778 3.23279 8.55585 3.68508C7.46392 4.13738 6.47177 4.80031 5.63604 5.63604C4.80031 6.47177 4.13738 7.46392 3.68508 8.55585C3.23279 9.64778 3 10.8181 3 12V15" stroke="#99999D" stroke-width="1.5" stroke-linecap="round"/>
<path d="M6.75 18.5V16.5H7.25V18.5H6.75ZM6.67746 19.5H7.19375C7.10031 19.9099 6.89302 20.289 6.59099 20.591C6.28896 20.893 5.90991 21.1003 5.5 21.1937V20.6775C6.06425 20.5094 6.5094 20.0643 6.67746 19.5ZM4.5 20.6775V21.1937C4.09009 21.1003 3.71104 20.893 3.40901 20.591C3.10698 20.289 2.89969 19.9099 2.80625 19.5H3.32254C3.4906 20.0643 3.93575 20.5094 4.5 20.6775ZM5.5 15.25H4.25V15V14.75H5.5V15.25ZM3.25 16.25V18.5H2.75V16.25H3H3.25ZM6.5 15.441V14.8544C6.64185 14.9163 6.77233 15.0046 6.88388 15.1161C6.99544 15.2277 7.08374 15.3581 7.14564 15.5H6.55902C6.54976 15.4897 6.5402 15.4795 6.53033 15.4697C6.52046 15.4598 6.51035 15.4502 6.5 15.441ZM16.75 18.5V16.5H17.25V18.5H16.75ZM17.1161 15.1161C17.2277 15.0046 17.3581 14.9163 17.5 14.8544V15.441C17.4897 15.4502 17.4795 15.4598 17.4697 15.4697C17.4598 15.4795 17.4502 15.4897 17.441 15.5H16.8544C16.9163 15.3581 17.0046 15.2277 17.1161 15.1161ZM18.5 15.25V14.75H19.75V15V15.25H18.5ZM21.25 18.5H20.75V16.25H21H21.25V18.5ZM20.6775 19.5H21.1937C21.1003 19.9099 20.893 20.289 20.591 20.591C20.289 20.893 19.9099 21.1003 19.5 21.1937V20.6775C20.0643 20.5094 20.5094 20.0643 20.6775 19.5ZM18.5 20.6775V21.1937C18.0901 21.1003 17.711 20.893 17.409 20.591C17.107 20.289 16.8997 19.9099 16.8063 19.5H17.3225C17.4906 20.0643 17.9357 20.5094 18.5 20.6775Z" fill="black" stroke="#99999D"/>
</svg>
