<svg width="37" height="32" viewBox="0 0 37 32" fill="none" xmlns="http://www.w3.org/2000/svg">
<path d="M36.9468 31.9999L18.4734 21.3264L0 31.9999H9.2367L18.4734 21.3264L27.7101 31.9999H36.9468Z" fill="#99999D"/>
<path d="M18.4736 0V21.3265L36.947 32L32.3287 23.9949L18.4736 21.3265L23.092 8.00514L18.4736 0Z" fill="#99999D"/>
<path d="M0 32L18.4734 21.3265V0L13.855 8.00514L18.4734 21.3265L4.61835 23.9949L0 32Z" fill="#99999D"/>
<path d="M9.23682 23.1122V15.9897L15.3946 12.4387L9.23682 23.1122Z" fill="#99999D"/>
<path d="M24.631 28.449L18.4732 31.9999L12.3154 28.449H24.631Z" fill="#99999D"/>
<path d="M21.5522 12.4387L27.71 15.9897V23.1122L21.5522 12.4387Z" fill="#99999D"/>
</svg>
