<svg width="37" height="33" viewBox="0 0 37 33" fill="none" xmlns="http://www.w3.org/2000/svg">
<path d="M37 32.046L32.375 24.0293H4.625L0 32.046H9.25V26.7015H27.75V32.046H37Z" fill="#99999D"/>
<path d="M32.375 24.0296L28.9011 18.0273H8.09887L4.625 24.0296H11.5727V20.0213H25.4477V24.0296H32.375Z" fill="#99999D"/>
<path d="M28.9014 18.0273L26.3114 13.5256H10.6891L8.09912 18.0273H13.2997V15.0263H23.7008V18.0273H28.9014Z" fill="#99999D"/>
<path d="M26.3112 13.5255L24.3584 10.1338H12.6417L10.689 13.5255H14.5945V11.2643H22.4056V13.5255H26.3112Z" fill="#99999D"/>
<path d="M24.3588 10.134L22.8993 7.60571H14.1016L12.6421 10.134H15.5815V8.44851H21.4194V10.134H24.3588Z" fill="#99999D"/>
<path d="M22.8988 7.60557L21.7888 5.69385H15.2111L14.1011 7.60557H16.3005V6.33109H20.6994V7.60557H22.8988Z" fill="#99999D"/>
<path d="M21.7892 5.6937L20.967 4.27539H16.0336L15.2114 5.6937H16.8559V4.74823H20.1448V5.6937H21.7892Z" fill="#99999D"/>
<path d="M20.967 4.27562L20.3504 3.20679H16.6504L16.0337 4.27562H17.267V3.55617H19.7337V4.27562H20.967Z" fill="#99999D"/>
<path d="M20.3504 3.20653L19.8981 2.40479H17.1027L16.6504 3.20653H17.5754V2.67207H19.4254V3.20653H20.3504Z" fill="#99999D"/>
<path d="M19.8975 2.40494L18.4998 0L17.1021 2.40494H19.8975Z" fill="#99999D"/>
</svg>
