<svg width="108" height="13" viewBox="0 0 108 13" fill="none" xmlns="http://www.w3.org/2000/svg">
<path d="M14.9842 0.169189H11.8838V11.9463H14.9842V0.169189Z" fill="#99999D"/>
<path d="M83.5419 0.169189H80.4414V11.9463H83.5419V0.169189Z" fill="#99999D"/>
<path d="M75.2735 0.169189V4.88003H71.1395V0.169189H68.0391V11.9463H71.1395V7.23546H75.2735V11.9463H78.3739V0.169189H75.2735Z" fill="#99999D"/>
<path d="M108 2.52461V0.169189H101.799H98.6987V11.9463H101.799H108V9.59088H101.799V7.23546H107.483V4.88003H101.799V2.52461H108Z" fill="#99999D"/>
<path d="M52.8782 11.9463H55.9786L51.6724 0.169189H50.8112H48.9165H48.0552L43.749 11.9463H46.8495L47.5286 9.92737H52.199L52.8782 11.9463ZM48.321 7.57195L49.8638 2.98545L51.4067 7.57195H48.321Z" fill="#99999D"/>
<path d="M22.2203 0C22.1045 0 21.6471 0 21.5313 0C18.7725 0 16.5361 2.18444 16.5361 4.87909V7.23451C16.5361 9.92916 18.7725 12.1136 21.5313 12.1136C21.6471 12.1136 22.1045 12.1136 22.2203 12.1136C24.9791 12.1136 27.2155 9.92916 27.2155 7.23451V4.87909C27.2155 2.18444 24.9791 0 22.2203 0ZM22.0481 9.75818C21.99 9.75818 21.7616 9.75818 21.7036 9.75818C20.562 9.75818 19.6366 8.85427 19.6366 7.73924C19.6366 7.03694 19.6366 5.07666 19.6366 4.37436C19.6366 3.25933 20.562 2.35542 21.7036 2.35542C21.7616 2.35542 21.99 2.35542 22.0481 2.35542C23.1896 2.35542 24.115 3.25933 24.115 4.37436C24.115 5.07666 24.115 7.03694 24.115 7.73924C24.115 8.85427 23.1896 9.75818 22.0481 9.75818Z" fill="#99999D"/>
<path d="M61.6667 9.75818C61.6086 9.75818 61.3802 9.75818 61.3222 9.75818C60.1807 9.75818 59.2552 8.85427 59.2552 7.73924V4.37436C59.2552 3.25933 60.1807 2.35542 61.3222 2.35542C61.3802 2.35542 61.6086 2.35542 61.6667 2.35542C62.7131 2.35542 63.5614 3.18401 63.5614 4.20611H66.6343C66.3764 1.84176 64.328 0 61.839 0C61.7231 0 61.2658 0 61.15 0C58.3912 0 56.1548 2.18444 56.1548 4.87909V7.23451C56.1548 9.92916 58.3912 12.1136 61.15 12.1136C61.2658 12.1136 61.7231 12.1136 61.839 12.1136C64.328 12.1136 66.3764 10.2718 66.6343 7.90749H63.5614C63.5614 8.92959 62.7131 9.75818 61.6667 9.75818Z" fill="#99999D"/>
<path d="M8.28049 5.73001C9.18014 5.38796 9.81763 4.53379 9.81763 3.53408C9.81763 1.67565 8.27532 0.169189 6.37268 0.169189H-0.000488281V11.9463H6.88942C8.79207 11.9463 10.3344 10.4398 10.3344 8.58141C10.3344 7.26759 9.47796 6.14927 8.28049 5.73001ZM6.71717 3.70232C6.71717 4.35276 6.17735 4.88003 5.51144 4.88003H3.09997V2.52461H5.51144C6.17735 2.52461 6.71717 3.05189 6.71717 3.70232ZM6.02818 9.59088H3.09997V7.23546H6.02818C6.69409 7.23546 7.23392 7.76274 7.23392 8.41317C7.23392 9.0636 6.69409 9.59088 6.02818 9.59088Z" fill="#99999D"/>
<path d="M41.165 0.169189H39.6148H38.7536L35.7392 8.75667L32.7249 0.169189H31.8636H30.3134H28.7632V11.9463H31.8636V4.58561L34.4474 11.9463H34.6196H36.8588H37.0311L39.6148 4.58561V11.9463H42.7152V0.169189H41.165Z" fill="#99999D"/>
<path d="M93.5303 0.169189V7.63759L89.0519 0.169189H88.7074H86.1237H85.6069V11.9463H88.7074V4.4779L93.1858 11.9463H93.5303H96.114H96.6308V0.169189H93.5303Z" fill="#99999D"/>
</svg>
