<svg width="1376" height="155" viewBox="0 0 1376 155" fill="none" xmlns="http://www.w3.org/2000/svg">
<path d="M190.915 2.15576H151.414V152.204H190.915V2.15576Z" fill="url(#paint0_linear_114_895)"/>
<path d="M1064.39 2.15576H1024.88V152.204H1064.39V2.15576Z" fill="url(#paint1_linear_114_895)"/>
<path d="M959.041 2.15576V62.1751H906.372V2.15576H866.87V152.204H906.372V92.1847H959.041V152.204H998.543V2.15576H959.041Z" fill="url(#paint2_linear_114_895)"/>
<path d="M1376 32.1654V2.15576H1297H1257.49V152.204H1297H1376V122.194H1297V92.1847H1369.42V62.1751H1297V32.1654H1376Z" fill="url(#paint3_linear_114_895)"/>
<path d="M673.71 152.204H713.212L658.348 2.15576H647.375H623.235H612.262L557.398 152.204H596.9L605.553 126.481H665.057L673.71 152.204ZM615.648 96.4718L635.305 38.0368L654.962 96.4718H615.648Z" fill="url(#paint4_linear_114_895)"/>
<path d="M283.108 0C281.633 0 275.806 0 274.33 0C239.181 0 210.688 27.8312 210.688 62.1629V92.1725C210.688 126.504 239.181 154.335 274.33 154.335C275.806 154.335 281.633 154.335 283.108 154.335C318.257 154.335 346.75 126.504 346.75 92.1725V62.1629C346.75 27.8312 318.257 0 283.108 0ZM280.914 124.326C280.175 124.326 277.264 124.326 276.525 124.326C261.98 124.326 250.19 112.809 250.19 98.6032C250.19 89.6554 250.19 64.68 250.19 55.7322C250.19 41.5261 261.98 30.0097 276.525 30.0097C277.264 30.0097 280.175 30.0097 280.914 30.0097C295.458 30.0097 307.248 41.5261 307.248 55.7322C307.248 64.68 307.248 89.6554 307.248 98.6032C307.248 112.809 295.458 124.326 280.914 124.326Z" fill="url(#paint5_linear_114_895)"/>
<path d="M785.682 124.326C784.942 124.326 782.032 124.326 781.293 124.326C766.748 124.326 754.958 112.809 754.958 98.6032V55.7322C754.958 41.5261 766.748 30.0097 781.293 30.0097C782.032 30.0097 784.942 30.0097 785.682 30.0097C799.014 30.0097 809.822 40.5664 809.822 53.5887H848.972C845.686 23.4652 819.588 0 787.876 0C786.4 0 780.574 0 779.098 0C743.949 0 715.456 27.8312 715.456 62.1629V92.1725C715.456 126.504 743.949 154.335 779.098 154.335C780.574 154.335 786.4 154.335 787.876 154.335C819.588 154.335 845.687 130.87 848.972 100.747H809.822C809.822 113.769 799.014 124.326 785.682 124.326Z" fill="url(#paint6_linear_114_895)"/>
<path d="M105.505 73.0043C116.967 68.6464 125.089 57.7637 125.089 45.0267C125.089 21.3491 105.439 2.15576 81.1984 2.15576H0V152.204H87.782C112.023 152.204 131.673 133.011 131.673 109.333C131.673 92.5942 120.762 78.346 105.505 73.0043ZM85.5875 47.1702C85.5875 55.4572 78.7098 62.1751 70.2256 62.1751H39.5019V32.1654H70.2256C78.7098 32.1654 85.5875 38.8833 85.5875 47.1702ZM76.8093 122.194H39.5019V92.1847H76.8093C85.2934 92.1847 92.1711 98.9026 92.1711 107.19C92.1711 115.477 85.2934 122.194 76.8093 122.194Z" fill="url(#paint7_linear_114_895)"/>
<path d="M524.476 2.15576H504.725H493.752L455.348 111.566L416.943 2.15576H405.97H386.219H366.468V152.204H405.97V58.4239L438.888 152.204H441.083H469.612H471.807L504.725 58.4239V152.204H544.227V2.15576H524.476Z" fill="url(#paint8_linear_114_895)"/>
<path d="M1191.65 2.15576V97.3082L1134.59 2.15576H1130.2H1097.28H1090.7V152.204H1130.2V57.0516L1187.26 152.204H1191.65H1224.56H1231.15V2.15576H1191.65Z" fill="url(#paint9_linear_114_895)"/>
<defs>
<linearGradient id="paint0_linear_114_895" x1="171.165" y1="2.15576" x2="171.165" y2="156.847" gradientUnits="userSpaceOnUse">
<stop stop-color="#F1F1F1"/>
<stop offset="1" stop-color="#020202"/>
</linearGradient>
<linearGradient id="paint1_linear_114_895" x1="1044.63" y1="2.15576" x2="1044.63" y2="156.847" gradientUnits="userSpaceOnUse">
<stop stop-color="#F1F1F1"/>
<stop offset="1" stop-color="#020202"/>
</linearGradient>
<linearGradient id="paint2_linear_114_895" x1="932.706" y1="2.15576" x2="932.706" y2="156.847" gradientUnits="userSpaceOnUse">
<stop stop-color="#F1F1F1"/>
<stop offset="1" stop-color="#020202"/>
</linearGradient>
<linearGradient id="paint3_linear_114_895" x1="1316.75" y1="2.15576" x2="1316.75" y2="156.847" gradientUnits="userSpaceOnUse">
<stop stop-color="#F1F1F1"/>
<stop offset="1" stop-color="#020202"/>
</linearGradient>
<linearGradient id="paint4_linear_114_895" x1="635.305" y1="2.15576" x2="635.305" y2="156.847" gradientUnits="userSpaceOnUse">
<stop stop-color="#F1F1F1"/>
<stop offset="1" stop-color="#020202"/>
</linearGradient>
<linearGradient id="paint5_linear_114_895" x1="278.719" y1="0" x2="278.719" y2="159.111" gradientUnits="userSpaceOnUse">
<stop stop-color="#F1F1F1"/>
<stop offset="1" stop-color="#020202"/>
</linearGradient>
<linearGradient id="paint6_linear_114_895" x1="782.214" y1="0" x2="782.214" y2="159.111" gradientUnits="userSpaceOnUse">
<stop stop-color="#F1F1F1"/>
<stop offset="1" stop-color="#020202"/>
</linearGradient>
<linearGradient id="paint7_linear_114_895" x1="65.8365" y1="2.15576" x2="65.8365" y2="156.847" gradientUnits="userSpaceOnUse">
<stop stop-color="#F1F1F1"/>
<stop offset="1" stop-color="#020202"/>
</linearGradient>
<linearGradient id="paint8_linear_114_895" x1="455.348" y1="2.15576" x2="455.348" y2="156.847" gradientUnits="userSpaceOnUse">
<stop stop-color="#F1F1F1"/>
<stop offset="1" stop-color="#020202"/>
</linearGradient>
<linearGradient id="paint9_linear_114_895" x1="1160.92" y1="2.15576" x2="1160.92" y2="156.847" gradientUnits="userSpaceOnUse">
<stop stop-color="#F1F1F1"/>
<stop offset="1" stop-color="#020202"/>
</linearGradient>
</defs>
</svg>
