<svg width="195" height="194" viewBox="0 0 195 194" fill="none" xmlns="http://www.w3.org/2000/svg">
<path opacity="0.3" d="M194.815 90.9687C194.897 92.2998 194.952 93.6381 194.979 94.9831L192.98 95.0241C192.993 95.6811 193 96.3397 193 97C193 97.6603 192.993 98.3189 192.98 98.9759L194.979 99.0169C194.952 100.362 194.897 101.7 194.815 103.031L192.818 102.908C192.737 104.223 192.629 105.53 192.495 106.829L194.485 107.034C194.346 108.373 194.181 109.704 193.988 111.026L192.009 110.738C191.819 112.042 191.603 113.337 191.36 114.622L193.326 114.993C193.077 116.314 192.801 117.626 192.498 118.927L190.55 118.475C190.253 119.756 189.929 121.028 189.58 122.289L191.507 122.822C191.149 124.117 190.764 125.4 190.354 126.672L188.45 126.058C188.047 127.309 187.618 128.549 187.164 129.777L189.04 130.47C188.575 131.73 188.084 132.977 187.568 134.212L185.722 133.441C185.215 134.654 184.684 135.854 184.129 137.041L185.94 137.889C185.371 139.104 184.778 140.306 184.161 141.494L182.386 140.571C181.78 141.737 181.151 142.889 180.498 144.026L182.233 145.021C181.565 146.185 180.874 147.333 180.16 148.465L178.468 147.399C177.768 148.51 177.045 149.606 176.3 150.685L177.947 151.821C177.185 152.925 176.402 154.012 175.596 155.082L173.998 153.879C173.208 154.929 172.397 155.961 171.566 156.976L173.113 158.244C172.263 159.281 171.392 160.3 170.501 161.3L169.008 159.97C168.135 160.951 167.242 161.913 166.329 162.856L167.767 164.247C166.835 165.21 165.884 166.154 164.913 167.079L163.534 165.63C162.583 166.535 161.614 167.421 160.627 168.287L161.946 169.791C160.938 170.674 159.913 171.537 158.869 172.379L157.613 170.822C156.592 171.646 155.554 172.45 154.498 173.232L155.689 174.839C154.613 175.636 153.52 176.412 152.411 177.165L151.287 175.511C150.202 176.248 149.101 176.963 147.985 177.656L149.04 179.355C147.903 180.061 146.75 180.744 145.582 181.404L144.598 179.663C143.457 180.308 142.301 180.93 141.131 181.529L142.042 183.309C140.851 183.919 139.645 184.505 138.426 185.067L137.589 183.25C136.399 183.798 135.195 184.323 133.979 184.824L134.74 186.673C133.503 187.182 132.253 187.667 130.99 188.126L130.306 186.247C129.076 186.694 127.834 187.118 126.581 187.516L127.186 189.422C125.912 189.826 124.627 190.206 123.332 190.559L122.806 188.629C121.543 188.974 120.27 189.293 118.987 189.586L119.433 191.536C118.13 191.834 116.818 192.106 115.496 192.351L115.131 190.385C113.844 190.624 112.549 190.837 111.244 191.024L111.528 193.003C110.205 193.193 108.874 193.356 107.535 193.493L107.332 191.503C106.033 191.635 104.725 191.741 103.41 191.821L103.531 193.817C102.2 193.898 100.862 193.952 99.517 193.98L99.4766 191.98C98.8194 191.993 98.1605 192 97.5 192C96.8395 192 96.1806 191.993 95.5234 191.98L95.4831 193.98C94.1381 193.952 92.7998 193.898 91.4687 193.817L91.5899 191.821C90.2751 191.741 88.9675 191.635 87.6678 191.503L87.4654 193.493C86.1261 193.356 84.7948 193.193 83.4721 193.003L83.7559 191.024C82.4514 190.837 81.1556 190.624 79.8688 190.385L79.5038 192.351C78.182 192.106 76.8695 191.834 75.5671 191.536L76.013 189.586C74.7301 189.293 73.457 188.974 72.1945 188.629L71.6684 190.559C70.3725 190.206 69.0875 189.826 67.8139 189.422L68.4193 187.516C67.166 187.118 65.9239 186.694 64.6936 186.247L64.0098 188.126C62.7473 187.667 61.4971 187.182 60.2598 186.673L61.0208 184.824C59.8047 184.323 58.6011 183.798 57.4108 183.25L56.5739 185.067C55.3548 184.505 54.1493 183.919 52.9581 183.309L53.8694 181.529C52.6994 180.93 51.5435 180.308 50.4022 179.663L49.4183 181.404C48.2503 180.744 47.0974 180.061 45.9601 179.355L47.0149 177.656C45.8987 176.963 44.7978 176.248 43.7131 175.511L42.5893 177.165C41.4798 176.412 40.3869 175.636 39.311 174.839L40.5019 173.232C39.4464 172.45 38.4078 171.646 37.3866 170.822L36.1307 172.379C35.0872 171.537 34.0615 170.674 33.0543 169.791L34.373 168.287C33.3858 167.421 32.4166 166.535 31.4662 165.63L30.0869 167.079C29.1164 166.154 28.165 165.21 27.2334 164.247L28.6711 162.856C27.7585 161.913 26.8653 160.951 25.9922 159.97L24.4987 161.3C23.6075 160.3 22.7368 159.281 21.8873 158.244L23.4343 156.976C22.6026 155.961 21.7916 154.929 21.0019 153.879L19.4039 155.082C18.5985 154.012 17.8148 152.925 17.0534 151.821L18.6997 150.685C17.955 149.606 17.2321 148.51 16.5317 147.399L14.8398 148.465C14.1259 147.333 13.4348 146.185 12.7672 145.021L14.5019 144.026C13.8494 142.889 13.2199 141.737 12.614 140.571L10.8394 141.494C10.2221 140.306 9.62874 139.104 9.05997 137.889L10.8715 137.041C10.3161 135.854 9.78462 134.654 9.27772 133.441L7.43237 134.212C6.91644 132.977 6.42541 131.73 5.9599 130.47L7.8359 129.777C7.38216 128.549 6.95319 127.309 6.54959 126.058L4.64619 126.672C4.23583 125.4 3.85114 124.117 3.49274 122.822L5.42021 122.289C5.07103 121.028 4.74732 119.756 4.44968 118.475L2.50154 118.927C2.19923 117.626 1.92325 116.314 1.67418 114.993L3.63956 114.622C3.39714 113.337 3.18075 112.042 2.99097 110.738L1.01184 111.026C0.819351 109.704 0.653671 108.373 0.515362 107.034L2.50478 106.829C2.37056 105.53 2.26266 104.223 2.18161 102.908L0.185402 103.031C0.103328 101.7 0.0482343 100.362 0.0206584 99.0169L2.02024 98.9759C2.00677 98.3189 2 97.6603 2 97C2 96.3397 2.00677 95.6811 2.02024 95.0241L0.020658 94.9831C0.0482337 93.6381 0.103327 92.2998 0.185402 90.9688L2.18161 91.0918C2.26266 89.7775 2.37056 88.4704 2.50477 87.1712L0.515361 86.9657C0.653671 85.6268 0.819352 84.296 1.01184 82.9738L2.99098 83.2619C3.18076 81.9584 3.39714 80.6634 3.63956 79.3776L1.67418 79.0071C1.92325 77.686 2.19923 76.3744 2.50154 75.0728L4.44969 75.5253C4.74733 74.2439 5.07103 72.9723 5.42021 71.7113L3.49274 71.1776C3.85115 69.8833 4.23583 68.5998 4.6462 67.3278L6.5496 67.9418C6.9532 66.6908 7.38217 65.451 7.83591 64.2231L5.9599 63.5299C6.42541 62.2701 6.91645 61.0226 7.43238 59.788L9.27773 60.5592C9.78463 59.3462 10.3161 58.146 10.8715 56.959L9.05998 56.1113C9.62875 54.8958 10.2221 53.6939 10.8394 52.5063L12.614 53.4287C13.2199 52.2629 13.8494 51.1112 14.5019 49.9742L12.7672 48.9788C13.4348 47.8154 14.1259 46.6671 14.8398 45.5345L16.5317 46.601C17.2321 45.49 17.955 44.3943 18.6997 43.3147L17.0534 42.1791C17.8148 41.0754 18.5985 39.9881 19.4039 38.918L21.0019 40.1207C21.7916 39.0714 22.6026 38.0389 23.4343 37.0238L21.8873 35.7563C22.7368 34.7194 23.6075 33.7003 24.4987 32.6996L25.9922 34.0298C26.8653 33.0494 27.7585 32.0871 28.6711 31.1435L27.2334 29.7531C28.165 28.7899 29.1164 27.8458 30.0869 26.9215L31.4663 28.3698C32.4166 27.4646 33.3858 26.5788 34.373 25.713L33.0543 24.2094C34.0615 23.3261 35.0872 22.4631 36.1307 21.6212L37.3866 23.1778C38.4078 22.3538 39.4464 21.5505 40.5019 20.7683L39.311 19.1614C40.3869 18.3641 41.4799 17.5883 42.5893 16.8347L43.7131 18.4891C44.7978 17.7523 45.8987 17.0371 47.0149 16.3442L45.9601 14.6449C47.0974 13.939 48.2503 13.2557 49.4183 12.5958L50.4022 14.337C51.5435 13.6921 52.6994 13.07 53.8694 12.4712L52.9581 10.6908C54.1493 10.0811 55.3548 9.49513 56.5739 8.93345L57.4108 10.7499C58.6011 10.2015 59.8047 9.67678 61.0208 9.17633L60.2598 7.32679C61.4971 6.81762 62.7473 6.33306 64.0098 5.87373L64.6936 7.75318C65.9239 7.30554 67.166 6.88236 68.4193 6.48424L67.8139 4.57809C69.0875 4.17352 70.3726 3.79428 71.6684 3.44097L72.1945 5.37054C73.457 5.02629 74.7301 4.70718 76.013 4.41378L75.5671 2.46412C76.8695 2.16625 78.182 1.89433 79.5038 1.64895L79.8688 3.61535C81.1556 3.37648 82.4514 3.16326 83.7559 2.97627L83.4721 0.996504C84.7948 0.806895 86.1261 0.6437 87.4654 0.507474L87.6677 2.49721C88.9675 2.365 90.2751 2.25872 91.5899 2.17889L91.4687 0.182563C92.7998 0.101745 94.1381 0.0474962 95.483 0.0203428L95.5234 2.01994C96.1806 2.00667 96.8395 2 97.5 2C98.1605 2 98.8194 2.00667 99.4766 2.01993L99.5169 0.0203423C100.862 0.0474953 102.2 0.101744 103.531 0.182562L103.41 2.17889C104.725 2.25872 106.032 2.365 107.332 2.49721L107.535 0.507473C108.874 0.643699 110.205 0.806894 111.528 0.996504L111.244 2.97627C112.549 3.16326 113.844 3.37648 115.131 3.61535L115.496 1.64895C116.818 1.89433 118.13 2.16625 119.433 2.46412L118.987 4.41378C120.27 4.70718 121.543 5.02629 122.806 5.37054L123.332 3.44097C124.627 3.79428 125.912 4.17352 127.186 4.57809L126.581 6.48424C127.834 6.88236 129.076 7.30554 130.306 7.75318L130.99 5.87373C132.253 6.33306 133.503 6.81762 134.74 7.3268L133.979 9.17633C135.195 9.67678 136.399 10.2015 137.589 10.7499L138.426 8.93345C139.645 9.49513 140.851 10.0811 142.042 10.6908L141.131 12.4712C142.301 13.07 143.457 13.6921 144.598 14.337L145.582 12.5958C146.75 13.2557 147.903 13.939 149.04 14.6449L147.985 16.3442C149.101 17.0371 150.202 17.7523 151.287 18.4891L152.411 16.8347C153.52 17.5883 154.613 18.3641 155.689 19.1614L154.498 20.7683C155.554 21.5505 156.592 22.3538 157.613 23.1778L158.869 21.6212C159.913 22.4631 160.938 23.3261 161.946 24.2094L160.627 25.713C161.614 26.5788 162.583 27.4646 163.534 28.3698L164.913 26.9215C165.884 27.8458 166.835 28.7899 167.767 29.7531L166.329 31.1435C167.242 32.0871 168.135 33.0494 169.008 34.0298L170.501 32.6996C171.392 33.7003 172.263 34.7194 173.113 35.7563L171.566 37.0238C172.397 38.0389 173.208 39.0714 173.998 40.1207L175.596 38.918C176.402 39.9882 177.185 41.0754 177.947 42.1791L176.3 43.3148C177.045 44.3943 177.768 45.49 178.468 46.601L180.16 45.5345C180.874 46.6671 181.565 47.8154 182.233 48.9788L180.498 49.9742C181.151 51.1112 181.78 52.2629 182.386 53.4287L184.161 52.5063C184.778 53.6939 185.371 54.8958 185.94 56.1114L184.129 56.959C184.684 58.146 185.215 59.3463 185.722 60.5592L187.568 59.7881C188.084 61.0226 188.575 62.2701 189.04 63.5299L187.164 64.2231C187.618 65.451 188.047 66.6908 188.45 67.9418L190.354 67.3278C190.764 68.5998 191.149 69.8833 191.507 71.1776L189.58 71.7113C189.929 72.9724 190.253 74.2439 190.55 75.5254L192.498 75.0729C192.801 76.3744 193.077 77.686 193.326 79.0071L191.36 79.3776C191.603 80.6634 191.819 81.9584 192.009 83.2619L193.988 82.9738C194.181 84.296 194.346 85.6268 194.485 86.9656L192.495 87.1712C192.629 88.4704 192.737 89.7775 192.818 91.0918L194.815 90.9687Z" stroke="url(#paint0_linear_217_1947)" stroke-width="4" stroke-dasharray="4 4"/>
<defs>
<linearGradient id="paint0_linear_217_1947" x1="97.5" y1="0" x2="97.5" y2="194" gradientUnits="userSpaceOnUse">
<stop stop-color="#E2E2E2"/>
<stop offset="1" stop-color="#3A3A3A" stop-opacity="0"/>
</linearGradient>
</defs>
</svg>
