<svg width="196" height="195" viewBox="0 0 196 195" fill="none" xmlns="http://www.w3.org/2000/svg">
<path opacity="0.3" d="M195.814 91.4377C195.896 92.7756 195.952 94.1208 195.979 95.4727L193.98 95.5137C193.993 96.1741 194 96.8363 194 97.5C194 98.1637 193.993 98.8259 193.98 99.4863L195.979 99.5273C195.952 100.879 195.896 102.224 195.814 103.562L193.817 103.439C193.736 104.76 193.628 106.074 193.493 107.38L195.482 107.586C195.343 108.932 195.176 110.269 194.983 111.598L193.004 111.31C192.813 112.621 192.596 113.922 192.352 115.215L194.317 115.585C194.067 116.913 193.79 118.232 193.486 119.54L191.538 119.087C191.238 120.376 190.913 121.654 190.562 122.922L192.489 123.455C192.129 124.756 191.743 126.046 191.33 127.325L189.427 126.711C189.021 127.968 188.59 129.215 188.134 130.449L190.01 131.142C189.542 132.409 189.048 133.662 188.53 134.903L186.684 134.132C186.175 135.352 185.641 136.558 185.082 137.751L186.894 138.599C186.322 139.821 185.726 141.029 185.105 142.223L183.331 141.3C182.722 142.472 182.089 143.63 181.433 144.773L183.168 145.768C182.497 146.938 181.802 148.092 181.084 149.23L179.392 148.164C178.688 149.281 177.962 150.382 177.213 151.467L178.859 152.603C178.094 153.712 177.306 154.805 176.497 155.881L174.899 154.678C174.105 155.733 173.29 156.771 172.454 157.791L174.001 159.059C173.147 160.101 172.272 161.126 171.376 162.131L169.883 160.801C169.005 161.787 168.107 162.754 167.19 163.703L168.627 165.093C167.691 166.061 166.735 167.01 165.759 167.939L164.38 166.491C163.425 167.401 162.45 168.291 161.458 169.162L162.777 170.665C161.764 171.553 160.733 172.421 159.684 173.267L158.429 171.71C157.402 172.539 156.358 173.346 155.297 174.133L156.488 175.739C155.406 176.541 154.308 177.321 153.193 178.078L152.069 176.424C150.979 177.165 149.872 177.883 148.75 178.58L149.805 180.279C148.662 180.989 147.503 181.676 146.329 182.339L145.345 180.598C144.198 181.246 143.036 181.872 141.859 182.473L142.771 184.254C141.573 184.867 140.362 185.456 139.136 186.02L138.299 184.204C137.103 184.755 135.893 185.283 134.671 185.786L135.432 187.635C134.188 188.147 132.931 188.634 131.662 189.096L130.979 187.216C129.742 187.666 128.493 188.092 127.233 188.492L127.839 190.398C126.559 190.805 125.267 191.186 123.964 191.541L123.438 189.612C122.169 189.958 120.889 190.279 119.6 190.573L120.046 192.523C118.737 192.823 117.417 193.096 116.089 193.343L115.724 191.376C114.43 191.616 113.128 191.831 111.816 192.019L112.1 193.998C110.771 194.189 109.432 194.353 108.086 194.49L107.884 192.5C106.577 192.633 105.263 192.74 103.941 192.82L104.062 194.816C102.724 194.898 101.379 194.952 100.027 194.98L99.987 192.98C99.3263 192.993 98.6639 193 98 193C97.336 193 96.6737 192.993 96.013 192.98L95.9726 194.98C94.6207 194.952 93.2755 194.898 91.9376 194.816L92.0588 192.82C90.7371 192.74 89.4227 192.633 88.1161 192.5L87.9137 194.49C86.5675 194.353 85.2294 194.189 83.8999 193.998L84.1837 192.019C82.8724 191.831 81.5698 191.616 80.2763 191.376L79.9112 193.342C78.5826 193.096 77.2635 192.823 75.9543 192.523L76.4002 190.573C75.1106 190.278 73.8308 189.958 72.5617 189.612L72.0355 191.541C70.7331 191.186 69.4414 190.805 68.1612 190.398L68.7667 188.492C67.5068 188.092 66.2582 187.666 65.0215 187.216L64.3376 189.096C63.0687 188.634 61.8121 188.147 60.5684 187.635L61.3294 185.786C60.1069 185.283 58.897 184.755 57.7005 184.204L56.8636 186.02C55.6382 185.456 54.4266 184.867 53.2292 184.254L54.1405 182.473C52.9644 181.872 51.8024 181.246 50.6551 180.598L49.6712 182.339C48.4972 181.676 47.3384 180.989 46.1953 180.279L47.2501 178.58C46.128 177.883 45.0214 177.165 43.931 176.424L42.8072 178.078C41.6921 177.321 40.5935 176.541 39.5121 175.739L40.703 174.133C39.642 173.346 38.5979 172.539 37.5714 171.71L36.3155 173.267C35.2667 172.421 34.2357 171.553 33.2234 170.665L34.5421 169.162C33.5497 168.291 32.5754 167.401 31.6201 166.491L30.2408 167.939C29.2652 167.01 28.309 166.061 27.3726 165.093L28.8103 163.703C27.8929 162.754 26.9951 161.787 26.1175 160.801L24.6239 162.131C23.7282 161.126 22.853 160.101 21.9991 159.059L23.5462 157.791C22.7101 156.771 21.8949 155.733 21.101 154.678L19.503 155.881C18.6935 154.805 17.9058 153.712 17.1405 152.603L18.7868 151.467C18.0382 150.382 17.3116 149.281 16.6075 148.164L14.9156 149.23C14.198 148.092 13.5034 146.938 12.8324 145.768L14.5671 144.773C13.9112 143.63 13.2784 142.472 12.6693 141.3L10.8947 142.223C10.2743 141.029 9.6779 139.821 9.10622 138.599L10.9177 137.751C10.3594 136.558 9.82521 135.352 9.31567 134.132L7.47031 134.903C6.95174 133.662 6.4582 132.408 5.99031 131.142L7.86633 130.449C7.41023 129.215 6.97902 127.968 6.57331 126.711L4.6699 127.325C4.25744 126.046 3.87079 124.756 3.51056 123.455L5.43804 122.921C5.08703 121.654 4.76164 120.376 4.46245 119.087L2.5143 119.54C2.21045 118.232 1.93306 116.913 1.68272 115.585L3.6481 115.215C3.40442 113.922 3.18691 112.621 2.99614 111.31L1.017 111.598C0.823532 110.269 0.657006 108.932 0.517991 107.586L2.50741 107.38C2.37249 106.074 2.26403 104.76 2.18256 103.439L0.186348 103.562C0.103855 102.224 0.0484804 100.879 0.0207638 99.5273L2.02034 99.4863C2.0068 98.8259 2 98.1637 2 97.5C2 96.8363 2.0068 96.1741 2.02034 95.5137L0.0207642 95.4727C0.048481 94.1208 0.103856 92.7756 0.18635 91.4377L2.18256 91.5608C2.26403 90.2395 2.37249 88.9256 2.50741 87.6195L0.517993 87.414C0.657008 86.0683 0.823534 84.7306 1.017 83.4017L2.99614 83.6898C3.18691 82.3794 3.40442 81.0776 3.6481 79.7851L1.68273 79.4145C1.93306 78.0867 2.21045 76.7684 2.51431 75.4601L4.46245 75.9126C4.76165 74.6244 5.08704 73.3462 5.43804 72.0785L3.51057 71.5448C3.8708 70.2438 4.25745 68.9538 4.66991 67.6752L6.57332 68.2892C6.97903 67.0316 7.41024 65.7853 7.86634 64.5509L5.99032 63.8577C6.45821 62.5915 6.95175 61.3376 7.47032 60.0966L9.31568 60.8678C9.82523 59.6484 10.3595 58.4418 10.9178 57.2486L9.10624 56.401C9.67791 55.1792 10.2743 53.9711 10.8947 52.7774L12.6693 53.6998C13.2785 52.5279 13.9113 51.3701 14.5671 50.2271L12.8324 49.2317C13.5034 48.0623 14.198 46.9081 14.9156 45.7697L16.6076 46.8362C17.3116 45.7193 18.0383 44.6179 18.7869 43.5326L17.1405 42.397C17.9058 41.2876 18.6935 40.1948 19.503 39.1191L21.1011 40.3217C21.8949 39.2669 22.7102 38.229 23.5462 37.2085L21.9991 35.941C22.853 34.8988 23.7282 33.8745 24.6239 32.8687L26.1175 34.1988C26.9951 33.2132 27.893 32.2459 28.8103 31.2973L27.3727 29.9069C28.309 28.9388 29.2653 27.9898 30.2408 27.0607L31.6201 28.5089C32.5755 27.599 33.5497 26.7086 34.5421 25.8382L33.2234 24.3346C34.2357 23.4467 35.2667 22.5793 36.3155 21.7331L37.5714 23.2896C38.598 22.4613 39.6421 21.6537 40.703 20.8674L39.5121 19.2606C40.5935 18.4591 41.6921 17.6793 42.8072 16.9218L43.931 18.5762C45.0215 17.8355 46.1281 17.1165 47.2501 16.42L46.1953 14.7207C47.3384 14.0111 48.4973 13.3243 49.6712 12.661L50.6552 14.4022C51.8024 13.7539 52.9644 13.1285 54.1405 12.5265L53.2293 10.7462C54.4266 10.1333 55.6382 9.54429 56.8636 8.9797L57.7005 10.7962C58.8971 10.2449 60.1069 9.71735 61.3295 9.21425L60.5684 7.36473C61.8121 6.85293 63.0687 6.36586 64.3376 5.90415L65.0215 7.78359C66.2582 7.33359 67.5069 6.90817 68.7668 6.50794L68.1613 4.6018C69.4415 4.19513 70.7331 3.81393 72.0356 3.45879L72.5617 5.38835C73.8309 5.04229 75.1106 4.72149 76.4003 4.42654L75.9543 2.47688C77.2635 2.17747 78.5827 1.90415 79.9112 1.65749L80.2763 3.62389C81.5698 3.38375 82.8725 3.16941 84.1838 2.98143L83.9 1.00167C85.2295 0.811075 86.5676 0.647035 87.9138 0.510103L88.1162 2.49984C89.4227 2.36693 90.7372 2.26009 92.0589 2.17983L91.9377 0.183509C93.2756 0.102272 94.6208 0.0477422 95.9727 0.0204482L96.013 2.02004C96.6737 2.0067 97.3361 2 98 2C98.664 2 99.3263 2.0067 99.987 2.02004L100.027 0.0204494C101.379 0.0477443 102.724 0.102275 104.062 0.183513L103.941 2.17984C105.263 2.26009 106.577 2.36694 107.884 2.49984L108.086 0.510109C109.432 0.647041 110.771 0.811082 112.1 1.00167L111.816 2.98143C113.128 3.16942 114.43 3.38376 115.724 3.6239L116.089 1.6575C117.417 1.90416 118.737 2.17748 120.046 2.47689L119.6 4.42655C120.889 4.7215 122.169 5.0423 123.438 5.38837L123.964 3.45881C125.267 3.81394 126.559 4.19515 127.839 4.60182L127.233 6.50796C128.493 6.90819 129.742 7.3336 130.979 7.78361L131.662 5.90416C132.931 6.36587 134.188 6.85294 135.432 7.36475L134.671 9.21427C135.893 9.71737 137.103 10.2449 138.299 10.7962L139.136 8.97972C140.362 9.5443 141.573 10.1333 142.771 10.7462L141.86 12.5265C143.036 13.1285 144.198 13.7539 145.345 14.4022L146.329 12.661C147.503 13.3244 148.662 14.0112 149.805 14.7208L148.75 16.42C149.872 17.1165 150.979 17.8355 152.069 18.5762L153.193 16.9218C154.308 17.6793 155.407 18.4591 156.488 19.2606L155.297 20.8674C156.358 21.6537 157.402 22.4613 158.429 23.2896L159.684 21.7331C160.733 22.5793 161.764 23.4467 162.777 24.3346L161.458 25.8382C162.45 26.7086 163.425 27.5991 164.38 28.509L165.759 27.0607C166.735 27.9898 167.691 28.9388 168.627 29.907L167.19 31.2973C168.107 32.2459 169.005 33.2133 169.883 34.1988L171.376 32.8687C172.272 33.8745 173.147 34.8988 174.001 35.9411L172.454 37.2086C173.29 38.229 174.105 39.267 174.899 40.3218L176.497 39.1191C177.307 40.1948 178.094 41.2876 178.859 42.397L177.213 43.5326C177.962 44.6179 178.688 45.7193 179.392 46.8362L181.084 45.7697C181.802 46.9081 182.497 48.0624 183.168 49.2317L181.433 50.2271C182.089 51.3701 182.722 52.5279 183.331 53.6998L185.105 52.7774C185.726 53.9711 186.322 55.1792 186.894 56.401L185.082 57.2486C185.641 58.4419 186.175 59.6485 186.684 60.8678L188.53 60.0967C189.048 61.3376 189.542 62.5915 190.01 63.8577L188.134 64.5509C188.59 65.7853 189.021 67.0316 189.427 68.2892L191.33 67.6752C191.743 68.9538 192.129 70.2439 192.489 71.5448L190.562 72.0785C190.913 73.3462 191.238 74.6244 191.538 75.9126L193.486 75.4601C193.79 76.7684 194.067 78.0867 194.317 79.4146L192.352 79.7851C192.596 81.0776 192.813 82.3794 193.004 83.6898L194.983 83.4017C195.176 84.7307 195.343 86.0683 195.482 87.4141L193.493 87.6196C193.628 88.9256 193.736 90.2395 193.817 91.5608L195.814 91.4377Z" stroke="url(#paint0_linear_217_1946)" stroke-width="4" stroke-dasharray="4 4"/>
<defs>
<linearGradient id="paint0_linear_217_1946" x1="98" y1="0" x2="98" y2="195" gradientUnits="userSpaceOnUse">
<stop stop-color="#004ABA"/>
<stop offset="1" stop-color="#3A3A3A" stop-opacity="0"/>
</linearGradient>
</defs>
</svg>
