<svg width="196" height="195" viewBox="0 0 196 195" fill="none" xmlns="http://www.w3.org/2000/svg">
<path opacity="0.3" d="M195.814 103.562C195.896 102.224 195.952 100.879 195.979 99.5273L193.98 99.4863C193.993 98.8259 194 98.1637 194 97.5C194 96.8363 193.993 96.1741 193.98 95.5137L195.979 95.4727C195.952 94.1208 195.896 92.7756 195.814 91.4377L193.817 91.5608C193.736 90.2395 193.628 88.9256 193.493 87.6195L195.482 87.414C195.343 86.0683 195.176 84.7306 194.983 83.4017L193.004 83.6898C192.813 82.3794 192.596 81.0776 192.352 79.7851L194.317 79.4145C194.067 78.0867 193.79 76.7683 193.486 75.4601L191.538 75.9126C191.238 74.6244 190.913 73.3461 190.562 72.0785L192.489 71.5448C192.129 70.2438 191.743 68.9538 191.33 67.6752L189.427 68.2892C189.021 67.0316 188.59 65.7853 188.134 64.5509L190.01 63.8577C189.542 62.5915 189.048 61.3376 188.53 60.0966L186.684 60.8678C186.175 59.6484 185.641 58.4418 185.082 57.2486L186.894 56.401C186.322 55.1792 185.726 53.9711 185.105 52.7774L183.331 53.6998C182.722 52.5279 182.089 51.3701 181.433 50.2271L183.168 49.2317C182.497 48.0623 181.802 46.9081 181.084 45.7697L179.392 46.8362C178.688 45.7193 177.962 44.6179 177.213 43.5326L178.859 42.397C178.094 41.2876 177.306 40.1947 176.497 39.1191L174.899 40.3217C174.105 39.267 173.29 38.229 172.454 37.2085L174.001 35.941C173.147 34.8988 172.272 33.8745 171.376 32.8687L169.883 34.1988C169.005 33.2132 168.107 32.2459 167.19 31.2973L168.627 29.9069C167.691 28.9388 166.735 27.9898 165.759 27.0607L164.38 28.5089C163.425 27.599 162.45 26.7086 161.458 25.8382L162.777 24.3346C161.764 23.4467 160.733 22.5793 159.684 21.7331L158.429 23.2896C157.402 22.4613 156.358 21.6537 155.297 20.8674L156.488 19.2606C155.406 18.4591 154.308 17.6793 153.193 16.9218L152.069 18.5762C150.979 17.8355 149.872 17.1165 148.75 16.42L149.805 14.7207C148.662 14.0112 147.503 13.3244 146.329 12.661L145.345 14.4022C144.198 13.7539 143.036 13.1285 141.859 12.5265L142.771 10.7462C141.573 10.1333 140.362 9.5443 139.136 8.97971L138.299 10.7962C137.103 10.2449 135.893 9.71736 134.671 9.21426L135.432 7.36473C134.188 6.85292 132.931 6.36586 131.662 5.90414L130.979 7.7836C129.742 7.33359 128.493 6.90817 127.233 6.50793L127.839 4.60181C126.559 4.19513 125.267 3.81393 123.964 3.4588L123.438 5.38835C122.169 5.0423 120.889 4.7215 119.6 4.42654L120.046 2.47688C118.737 2.17747 117.417 1.90414 116.089 1.65749L115.724 3.62389C114.43 3.38376 113.128 3.1694 111.816 2.98143L112.1 1.00166C110.771 0.811066 109.432 0.647034 108.086 0.510101L107.884 2.49983C106.577 2.36693 105.263 2.26009 103.941 2.17982L104.062 0.183502C102.724 0.102264 101.379 0.0477448 100.027 0.0204468L99.987 2.02003C99.3263 2.0067 98.6639 2 98 2C97.336 2 96.6737 2.0067 96.013 2.02003L95.9726 0.0204468C94.6207 0.0477448 93.2755 0.10228 91.9376 0.183517L92.0588 2.17984C90.7371 2.26009 89.4227 2.36694 88.1161 2.49985L87.9137 0.510101C86.5675 0.647034 85.2294 0.811081 83.8999 1.00168L84.1837 2.98143C82.8724 3.16942 81.5698 3.38376 80.2763 3.6239L79.9112 1.6575C78.5826 1.90416 77.2635 2.17749 75.9543 2.4769L76.4002 4.42654C75.1106 4.72151 73.8308 5.0423 72.5617 5.38837L72.0355 3.4588C70.7331 3.81393 69.4414 4.19514 68.1612 4.60182L68.7667 6.50795C67.5068 6.90819 66.2582 7.3336 65.0215 7.7836L64.3376 5.90416C63.0687 6.36588 61.8121 6.85294 60.5684 7.36475L61.3294 9.21426C60.1069 9.71736 58.897 10.2449 57.7005 10.7962L56.8636 8.97972C55.6382 9.54431 54.4266 10.1333 53.2292 10.7462L54.1405 12.5265C52.9644 13.1285 51.8024 13.7539 50.6551 14.4022L49.6712 12.661C48.4972 13.3244 47.3384 14.0112 46.1953 14.7207L47.2501 16.42C46.128 17.1165 45.0214 17.8355 43.931 18.5762L42.8072 16.9218C41.6921 17.6793 40.5935 18.4591 39.5121 19.2606L40.703 20.8674C39.642 21.6537 38.5979 22.4613 37.5714 23.2896L36.3155 21.7331C35.2667 22.5794 34.2357 23.4467 33.2234 24.3346L34.5421 25.8382C33.5497 26.7086 32.5754 27.5991 31.6201 28.509L30.2408 27.0607C29.2652 27.9898 28.309 28.9388 27.3726 29.907L28.8103 31.2973C27.8929 32.2459 26.9951 33.2133 26.1175 34.1988L24.6239 32.8687C23.7282 33.8745 22.853 34.8988 21.9991 35.9411L23.5462 37.2086C22.7101 38.229 21.8949 39.267 21.101 40.3218L19.503 39.1191C18.6935 40.1948 17.9058 41.2876 17.1405 42.397L18.7868 43.5326C18.0382 44.6179 17.3116 45.7193 16.6075 46.8362L14.9156 45.7697C14.198 46.9081 13.5034 48.0623 12.8324 49.2317L14.5671 50.2271C13.9112 51.3701 13.2784 52.5279 12.6693 53.6998L10.8947 52.7774C10.2743 53.9711 9.6779 55.1792 9.10622 56.401L10.9177 57.2486C10.3594 58.4419 9.82521 59.6485 9.31567 60.8678L7.47031 60.0967C6.95174 61.3376 6.4582 62.5915 5.99031 63.8577L7.86633 64.5509C7.41023 65.7853 6.97902 67.0316 6.57331 68.2892L4.6699 67.6752C4.25744 68.9538 3.87079 70.2439 3.51056 71.5448L5.43804 72.0785C5.08703 73.3462 4.76164 74.6244 4.46245 75.9126L2.5143 75.4601C2.21045 76.7684 1.93306 78.0867 1.68272 79.4146L3.6481 79.7851C3.40442 81.0776 3.18691 82.3794 2.99614 83.6898L1.017 83.4017C0.823532 84.7307 0.657006 86.0683 0.517991 87.4141L2.50741 87.6196C2.37249 88.9256 2.26403 90.2395 2.18256 91.5608L0.186348 91.4377C0.103855 92.7756 0.0484804 94.1208 0.0207638 95.4727L2.02034 95.5137C2.0068 96.1741 2 96.8363 2 97.5C2 98.1637 2.0068 98.8259 2.02034 99.4863L0.0207642 99.5273C0.048481 100.879 0.103856 102.224 0.18635 103.562L2.18256 103.439C2.26403 104.76 2.37249 106.074 2.50741 107.38L0.517993 107.586C0.657008 108.932 0.823534 110.269 1.017 111.598L2.99614 111.31C3.18691 112.621 3.40442 113.922 3.6481 115.215L1.68273 115.585C1.93306 116.913 2.21045 118.232 2.51431 119.54L4.46245 119.087C4.76165 120.376 5.08704 121.654 5.43804 122.921L3.51057 123.455C3.8708 124.756 4.25745 126.046 4.66991 127.325L6.57332 126.711C6.97903 127.968 7.41024 129.215 7.86634 130.449L5.99032 131.142C6.45821 132.409 6.95175 133.662 7.47032 134.903L9.31568 134.132C9.82523 135.352 10.3595 136.558 10.9178 137.751L9.10624 138.599C9.67791 139.821 10.2743 141.029 10.8947 142.223L12.6693 141.3C13.2785 142.472 13.9113 143.63 14.5671 144.773L12.8324 145.768C13.5034 146.938 14.198 148.092 14.9156 149.23L16.6076 148.164C17.3116 149.281 18.0383 150.382 18.7869 151.467L17.1405 152.603C17.9058 153.712 18.6935 154.805 19.503 155.881L21.1011 154.678C21.8949 155.733 22.7102 156.771 23.5462 157.791L21.9991 159.059C22.853 160.101 23.7282 161.126 24.6239 162.131L26.1175 160.801C26.9951 161.787 27.893 162.754 28.8103 163.703L27.3727 165.093C28.309 166.061 29.2653 167.01 30.2408 167.939L31.6201 166.491C32.5755 167.401 33.5497 168.291 34.5421 169.162L33.2234 170.665C34.2357 171.553 35.2667 172.421 36.3155 173.267L37.5714 171.71C38.598 172.539 39.6421 173.346 40.703 174.133L39.5121 175.739C40.5935 176.541 41.6921 177.321 42.8072 178.078L43.931 176.424C45.0215 177.165 46.1281 177.884 47.2501 178.58L46.1953 180.279C47.3384 180.989 48.4973 181.676 49.6712 182.339L50.6552 180.598C51.8024 181.246 52.9644 181.872 54.1405 182.473L53.2293 184.254C54.4266 184.867 55.6382 185.456 56.8636 186.02L57.7005 184.204C58.8971 184.755 60.1069 185.283 61.3295 185.786L60.5684 187.635C61.8121 188.147 63.0687 188.634 64.3376 189.096L65.0215 187.216C66.2582 187.666 67.5069 188.092 68.7668 188.492L68.1613 190.398C69.4415 190.805 70.7331 191.186 72.0356 191.541L72.5617 189.612C73.8309 189.958 75.1106 190.279 76.4003 190.573L75.9543 192.523C77.2635 192.823 78.5827 193.096 79.9112 193.343L80.2763 191.376C81.5698 191.616 82.8725 191.831 84.1838 192.019L83.9 193.998C85.2295 194.189 86.5676 194.353 87.9138 194.49L88.1162 192.5C89.4227 192.633 90.7372 192.74 92.0589 192.82L91.9377 194.816C93.2756 194.898 94.6208 194.952 95.9727 194.98L96.013 192.98C96.6737 192.993 97.3361 193 98 193C98.664 193 99.3263 192.993 99.987 192.98L100.027 194.98C101.379 194.952 102.724 194.898 104.062 194.816L103.941 192.82C105.263 192.74 106.577 192.633 107.884 192.5L108.086 194.49C109.432 194.353 110.771 194.189 112.1 193.998L111.816 192.019C113.128 191.831 114.43 191.616 115.724 191.376L116.089 193.342C117.417 193.096 118.737 192.823 120.046 192.523L119.6 190.573C120.889 190.278 122.169 189.958 123.438 189.612L123.964 191.541C125.267 191.186 126.559 190.805 127.839 190.398L127.233 188.492C128.493 188.092 129.742 187.666 130.979 187.216L131.662 189.096C132.931 188.634 134.188 188.147 135.432 187.635L134.671 185.786C135.893 185.283 137.103 184.755 138.299 184.204L139.136 186.02C140.362 185.456 141.573 184.867 142.771 184.254L141.86 182.473C143.036 181.871 144.198 181.246 145.345 180.598L146.329 182.339C147.503 181.676 148.662 180.989 149.805 180.279L148.75 178.58C149.872 177.883 150.979 177.165 152.069 176.424L153.193 178.078C154.308 177.321 155.407 176.541 156.488 175.739L155.297 174.133C156.358 173.346 157.402 172.539 158.429 171.71L159.684 173.267C160.733 172.421 161.764 171.553 162.777 170.665L161.458 169.162C162.45 168.291 163.425 167.401 164.38 166.491L165.759 167.939C166.735 167.01 167.691 166.061 168.627 165.093L167.19 163.703C168.107 162.754 169.005 161.787 169.883 160.801L171.376 162.131C172.272 161.126 173.147 160.101 174.001 159.059L172.454 157.791C173.29 156.771 174.105 155.733 174.899 154.678L176.497 155.881C177.307 154.805 178.094 153.712 178.859 152.603L177.213 151.467C177.962 150.382 178.688 149.281 179.392 148.164L181.084 149.23C181.802 148.092 182.497 146.938 183.168 145.768L181.433 144.773C182.089 143.63 182.722 142.472 183.331 141.3L185.105 142.223C185.726 141.029 186.322 139.821 186.894 138.599L185.082 137.751C185.641 136.558 186.175 135.352 186.684 134.132L188.53 134.903C189.048 133.662 189.542 132.408 190.01 131.142L188.134 130.449C188.59 129.215 189.021 127.968 189.427 126.711L191.33 127.325C191.743 126.046 192.129 124.756 192.489 123.455L190.562 122.921C190.913 121.654 191.238 120.376 191.538 119.087L193.486 119.54C193.79 118.232 194.067 116.913 194.317 115.585L192.352 115.215C192.596 113.922 192.813 112.621 193.004 111.31L194.983 111.598C195.176 110.269 195.343 108.932 195.482 107.586L193.493 107.38C193.628 106.074 193.736 104.76 193.817 103.439L195.814 103.562Z" stroke="url(#paint0_linear_217_1948)" stroke-width="4" stroke-dasharray="4 4"/>
<defs>
<linearGradient id="paint0_linear_217_1948" x1="98" y1="195" x2="98" y2="0" gradientUnits="userSpaceOnUse">
<stop stop-color="#A1223B"/>
<stop offset="1" stop-color="#3A3A3A" stop-opacity="0"/>
</linearGradient>
</defs>
</svg>
