<svg width="40" height="40" viewBox="0 0 40 40" fill="none" xmlns="http://www.w3.org/2000/svg">
<g clip-path="url(#clip0_535_3905)">
<g filter="url(#filter0_b_535_3905)">
<path d="M20 0C14.6969 0 9.60625 2.10844 5.85938 5.85781C2.10863 9.60868 0.00103897 14.6956 0 20C0 25.3022 2.10938 30.3928 5.85938 34.1422C9.60625 37.8916 14.6969 40 20 40C25.3031 40 30.3937 37.8916 34.1406 34.1422C37.8906 30.3928 40 25.3022 40 20C40 14.6978 37.8906 9.60719 34.1406 5.85781C30.3937 2.10844 25.3031 0 20 0Z" fill="#595959" fill-opacity="0.2"/>
</g>
<path d="M9.04754 19.7886C14.8788 17.2486 18.7663 15.5739 20.71 14.7648C26.2663 12.4545 27.4194 12.0533 28.1725 12.0397C28.3382 12.037 28.7069 12.078 28.9475 12.2725C29.1475 12.4365 29.2038 12.6584 29.2319 12.8142C29.2569 12.9698 29.2913 13.3245 29.2632 13.6014C28.9632 16.7639 27.66 24.4383 26.9975 27.9805C26.7194 29.4792 26.1663 29.9817 25.6319 30.0308C24.4694 30.1376 23.5882 29.2633 22.4632 28.5261C20.7038 27.372 19.71 26.6539 18.0007 25.528C16.0257 24.2267 17.3069 23.5114 18.4319 22.3426C18.7257 22.0367 23.8444 17.382 23.9413 16.9598C23.9538 16.907 23.9663 16.7101 23.8475 16.6064C23.7319 16.5023 23.56 16.538 23.435 16.5661C23.2569 16.6061 20.4475 18.4648 14.9975 22.142C14.2007 22.6901 13.4788 22.9573 12.8288 22.9433C12.1163 22.9279 10.7413 22.5395 9.71941 22.2076C8.46941 21.8005 7.47254 21.5851 7.56004 20.8936C7.60379 20.5336 8.10066 20.1651 9.04754 19.7886Z" fill="#F1F1F1"/>
</g>
<defs>
<filter id="filter0_b_535_3905" x="-15" y="-15" width="70" height="70" filterUnits="userSpaceOnUse" color-interpolation-filters="sRGB">
<feFlood flood-opacity="0" result="BackgroundImageFix"/>
<feGaussianBlur in="BackgroundImageFix" stdDeviation="7.5"/>
<feComposite in2="SourceAlpha" operator="in" result="effect1_backgroundBlur_535_3905"/>
<feBlend mode="normal" in="SourceGraphic" in2="effect1_backgroundBlur_535_3905" result="shape"/>
</filter>
<clipPath id="clip0_535_3905">
<rect width="40" height="40" fill="white"/>
</clipPath>
</defs>
</svg>
