<svg width="40" height="41" viewBox="0 0 40 41" fill="none" xmlns="http://www.w3.org/2000/svg">
<path d="M7.40914 26.7206C7.27185 26.4413 7.1433 26.1573 7.02408 25.8688L1.54053 28.4102C1.57166 28.4836 1.6039 28.5566 1.63594 28.6296L1.80577 29.0063C1.84534 29.0918 1.8843 29.1775 1.92498 29.2623L7.40914 26.7206Z" fill="#F1F1F1"/>
<path d="M9.72333 30.1041C9.48561 29.8457 9.25753 29.5786 9.03949 29.3033L4.48352 33.3085C4.59028 33.4403 4.69844 33.5707 4.80852 33.6998L4.84327 33.7404C4.94972 33.8647 5.05779 33.9876 5.16726 34.1093L9.72333 30.1041Z" fill="#F1F1F1"/>
<path d="M16.6584 34.2221C16.2384 34.1185 15.827 33.9959 15.4246 33.856L13.7257 39.7252C13.8383 39.7626 13.9515 39.7988 14.0651 39.8343L14.6063 39.9954C14.7235 40.0284 14.8416 40.0593 14.9597 40.0901L16.6584 34.2221Z" fill="#F1F1F1"/>
<path d="M8.81516 11.7291C9.1739 11.2523 9.56096 10.8002 9.97363 10.3751L5.41184 6.36757C5.25085 6.5398 5.09347 6.7156 4.9383 6.89364L4.67176 7.20572C4.52985 7.37541 4.39035 7.54733 4.25366 7.72191L8.81516 11.7291Z" fill="#F1F1F1"/>
<path d="M6.84625 15.3315C7.07011 14.7286 7.33173 14.1467 7.62901 13.589L2.13802 11.0466C2.05838 11.2035 1.98055 11.3616 1.90472 11.521L1.5731 12.2576C1.49797 12.4333 1.42526 12.6104 1.35486 12.7889L6.84625 15.3315Z" fill="#F1F1F1"/>
<path d="M12.9008 32.6786C12.5645 32.4787 12.2373 32.2659 11.9207 32.0399L8.66125 37.1849C8.70605 37.216 8.75014 37.2478 8.79523 37.2786L9.47385 37.7207C9.52938 37.7554 9.58442 37.791 9.64036 37.8252L12.9008 32.6786Z" fill="#F1F1F1"/>
<path d="M31.1903 29.0119C30.8316 29.4886 30.4445 29.9408 30.0319 30.3659L34.5937 34.3734C34.7546 34.2012 34.912 34.0254 35.0672 33.8473L35.3337 33.5354C35.4756 33.3657 35.6151 33.1938 35.7518 33.0192L31.1903 29.0119Z" fill="#F1F1F1"/>
<path d="M33.1594 25.4093C32.9355 26.0122 32.6739 26.5941 32.3766 27.1518L37.8676 29.6942C37.9472 29.5373 38.0251 29.3792 38.1009 29.2198L38.4325 28.4832C38.5076 28.3075 38.5803 28.1304 38.6507 27.9519L33.1594 25.4093Z" fill="#F1F1F1"/>
<path d="M20.7081 34.6132C20.2436 34.6364 19.7745 34.6363 19.302 34.6119L19.3041 40.7291C19.4539 40.7346 19.6034 40.7388 19.7525 40.7408L20.2907 40.7406C20.4308 40.7388 20.5708 40.7363 20.7103 40.7314L20.7081 34.6132Z" fill="#F1F1F1"/>
<path d="M28.2853 31.8916C27.8417 32.2197 27.3792 32.5216 26.9003 32.7956L30.1631 37.942C30.3878 37.8081 30.6103 37.6708 30.8295 37.5283L30.8757 37.4982C31.1031 37.3496 31.327 37.1958 31.5482 37.0381L28.2853 31.8916Z" fill="#F1F1F1"/>
<path d="M24.6976 33.8145C24.2197 33.9865 23.7313 34.1336 23.2335 34.2528L24.9347 40.1223C25.0583 40.0905 25.1813 40.0576 25.3039 40.0235L26.0701 39.795C26.1803 39.7596 26.2897 39.7224 26.3991 39.685L24.6976 33.8145Z" fill="#F1F1F1"/>
<path d="M11.7152 8.84952C12.1588 8.52134 12.6213 8.21945 13.1002 7.94547L9.83742 2.79913C9.61276 2.93297 9.3902 3.07027 9.17096 3.21276L9.12476 3.24291C8.89738 3.39151 8.67352 3.54531 8.45227 3.70298L11.7152 8.84952Z" fill="#F1F1F1"/>
<path d="M39.9362 17.8432L39.8252 17.0618L33.8579 17.9339C33.9035 18.2006 33.942 18.4695 33.9725 18.7404L39.9392 17.8684C39.9382 17.86 39.9372 17.8516 39.9362 17.8432Z" fill="#F1F1F1"/>
<path d="M0.0661232 22.8983L0.1771 23.6792L6.14443 22.8071C6.09884 22.5403 6.06037 22.2715 6.02984 22.0007L0.0631104 22.8726C0.0641147 22.8812 0.0651189 22.8897 0.0661232 22.8983Z" fill="#F1F1F1"/>
<path d="M32.5931 14.0205C32.7304 14.2997 32.859 14.5837 32.9782 14.8723L38.4617 12.3308C38.4306 12.2574 38.3984 12.1845 38.3663 12.1114L38.1965 11.7347C38.1569 11.6492 38.118 11.5636 38.0773 11.4787L32.5931 14.0205Z" fill="#F1F1F1"/>
<path d="M5.97557 19.3549C5.99957 19.0185 6.03472 18.6806 6.08273 18.3415C6.13074 18.0024 6.191 17.6683 6.2613 17.3386L0.285728 16.4674C0.222154 16.799 0.166013 17.1338 0.118108 17.472C0.0702018 17.8101 0.0311337 18.1474 0 18.4838L5.97557 19.3549Z" fill="#F1F1F1"/>
<path d="M34.0245 21.3858C34.0005 21.7222 33.9653 22.0601 33.9173 22.3992C33.8692 22.7382 33.809 23.0724 33.7386 23.4021L39.7142 24.2733C39.7778 23.9416 39.8339 23.6067 39.8818 23.2687C39.9297 22.9306 39.9688 22.5933 39.9999 22.257L34.0245 21.3858Z" fill="#F1F1F1"/>
<path d="M19.2908 6.12757C19.7553 6.10434 20.2244 6.10444 20.6969 6.12879L20.6948 0.0115908C20.5451 0.00609075 20.3955 0.00191499 20.2464 -0.00012207L19.7082 8.1524e-05C19.5682 0.00191488 19.4282 0.00446156 19.2887 0.00935051L19.2908 6.12757Z" fill="#F1F1F1"/>
<path d="M23.3372 6.5189C23.7572 6.62248 24.1685 6.74501 24.571 6.88496L26.2699 1.01577C26.1573 0.978393 26.0441 0.942133 25.9305 0.906688L25.3893 0.745557C25.2721 0.712556 25.154 0.681695 25.0358 0.650833L23.3372 6.5189Z" fill="#F1F1F1"/>
<path d="M30.2751 10.6369C30.5129 10.8953 30.7409 11.1624 30.959 11.4377L35.515 7.43249C35.4082 7.30069 35.3 7.17022 35.19 7.04117L35.1552 7.00053C35.0488 6.87627 34.9407 6.75334 34.8312 6.63162L30.2751 10.6369Z" fill="#F1F1F1"/>
<path d="M15.3082 6.92622C15.7862 6.75419 16.2745 6.60711 16.7723 6.48794L15.0711 0.618454C14.9485 0.649927 14.8263 0.682724 14.7045 0.716539L13.9344 0.946116C13.8247 0.981459 13.7157 1.01843 13.6067 1.05571L15.3082 6.92622Z" fill="#F1F1F1"/>
<path d="M27.1028 8.06246C27.439 8.26229 27.7662 8.47516 28.0829 8.70118L31.3423 3.55617C31.2975 3.525 31.2534 3.49322 31.2083 3.46246L30.5297 3.02032C30.4742 2.98559 30.4191 2.95004 30.3632 2.91582L27.1028 8.06246Z" fill="#F1F1F1"/>
<path d="M23.5693 13.0724C24.1009 13.3406 24.5993 13.6662 25.0559 14.0422L28.3251 8.88195C27.8514 8.52821 27.3551 8.20402 26.8387 7.9117L23.5693 13.0724Z" fill="#F1F1F1"/>
<path d="M28.0083 20.8804C27.9813 21.3212 27.9195 21.752 27.8262 22.171L33.8038 23.0425C33.8831 22.6186 33.9442 22.1881 33.9855 21.7518L28.0083 20.8804Z" fill="#F1F1F1"/>
<path d="M25.4984 14.4315C25.8991 14.8131 26.2609 15.2359 26.5777 15.6933L31.1457 11.6776C30.8101 11.2357 30.4496 10.8145 30.0662 10.4158L25.4984 14.4315Z" fill="#F1F1F1"/>
<path d="M27.5305 23.2088C27.3942 23.5805 27.2321 23.9395 27.0461 24.2833L32.5376 26.8261C32.7132 26.476 32.8744 26.1173 33.0216 25.7513L27.5305 23.2088Z" fill="#F1F1F1"/>
<path d="M26.9496 16.2951C27.2033 16.7396 27.4167 17.2103 27.5849 17.7027L33.0831 15.1545C32.896 14.6718 32.6829 14.2025 32.4471 13.7472L26.9496 16.2951Z" fill="#F1F1F1"/>
<path d="M27.813 18.5068C27.9184 18.9639 27.9876 19.435 28.0136 19.9181L33.9914 19.0445C33.948 18.5667 33.8814 18.0959 33.7926 17.6329L27.813 18.5068Z" fill="#F1F1F1"/>
<path d="M19.9971 12.222C20.3375 12.222 20.6721 12.246 21.0014 12.2876V6.1474C20.6696 6.12367 20.3349 6.11084 19.9971 6.11084C19.6594 6.11084 19.3245 6.12367 18.9928 6.1474V12.2876C19.322 12.246 19.6567 12.222 19.9971 12.222Z" fill="#F1F1F1"/>
<path d="M19.9971 28.5185C19.6567 28.5185 19.322 28.4946 18.9928 28.4529V34.5931C19.3246 34.6169 19.6594 34.6297 19.9971 34.6297C20.3349 34.6297 20.6696 34.6169 21.0014 34.5931V28.4529C20.6722 28.4946 20.3375 28.5185 19.9971 28.5185Z" fill="#F1F1F1"/>
<path d="M24.3445 33.9328L22.6432 28.0629C22.3916 28.1519 22.1345 28.2285 21.8722 28.2922L23.5736 34.1626C23.8337 34.0934 24.0906 34.0166 24.3445 33.9328Z" fill="#F1F1F1"/>
<path d="M24.7212 26.9583C24.4726 27.142 24.2132 27.3112 23.9442 27.4655L27.2074 32.6124C27.4722 32.4517 27.7311 32.2822 27.9841 32.1047L24.7212 26.9583Z" fill="#F1F1F1"/>
<path d="M26.3953 25.2927C26.1843 25.5744 25.9558 25.8419 25.7112 26.0932L30.2715 30.0994C30.5091 29.8414 30.7373 29.5743 30.9557 29.299L26.3953 25.2927Z" fill="#F1F1F1"/>
<path d="M17.3493 12.6775C17.6009 12.5884 17.858 12.5119 18.1203 12.4482L16.4189 6.57779C16.1589 6.64705 15.902 6.72395 15.6481 6.80757L17.3493 12.6775Z" fill="#F1F1F1"/>
<path d="M14.4972 26.3089C14.0965 25.9272 13.7348 25.5045 13.4179 25.047L8.84998 29.0628C9.18552 29.5046 9.54607 29.9259 9.92941 30.3245L14.4972 26.3089Z" fill="#F1F1F1"/>
<path d="M12.1759 22.2336C12.0704 21.7765 12.0012 21.3053 11.9752 20.8222L5.99744 21.6958C6.04082 22.1736 6.10751 22.6445 6.19629 23.1075L12.1759 22.2336Z" fill="#F1F1F1"/>
<path d="M13.0448 24.4455C12.7911 24.001 12.5777 23.5303 12.4095 23.0379L6.91125 25.5861C7.09836 26.0688 7.31147 26.5382 7.54739 26.9934L13.0448 24.4455Z" fill="#F1F1F1"/>
<path d="M18.6535 28.4034C18.0214 28.2956 17.414 28.1144 16.8412 27.8662L15.1366 33.7553C15.7232 33.9743 16.3283 34.1541 16.9487 34.2931L18.6535 28.4034Z" fill="#F1F1F1"/>
<path d="M16.4215 27.6683C15.8899 27.4001 15.3916 27.0745 14.9349 26.6984L11.6658 31.8587C12.1394 32.2125 12.6357 32.5367 13.1522 32.829L16.4215 27.6683Z" fill="#F1F1F1"/>
<path d="M11.9778 19.86C12.0047 19.4193 12.0665 18.9885 12.1598 18.5695L6.18217 17.698C6.10293 18.1219 6.04187 18.5524 6.00049 18.9887L11.9778 19.86Z" fill="#F1F1F1"/>
<path d="M21.3373 12.3373C21.9694 12.445 22.5768 12.6262 23.1496 12.8744L24.8542 6.98538C24.2676 6.7663 23.6625 6.58652 23.0421 6.44749L21.3373 12.3373Z" fill="#F1F1F1"/>
<path d="M15.2679 13.782C15.5165 13.5983 15.7759 13.4291 16.0449 13.2748L12.7816 8.12782C12.5169 8.28855 12.258 8.45803 12.005 8.63556L15.2679 13.782Z" fill="#F1F1F1"/>
<path d="M13.5934 15.4473C13.8044 15.1656 14.0328 14.8981 14.2775 14.6469L9.7172 10.6407C9.47958 10.8987 9.2514 11.1657 9.03296 11.441L13.5934 15.4473Z" fill="#F1F1F1"/>
<path d="M12.4681 17.5318C12.6044 17.16 12.7665 16.8011 12.9525 16.4572L7.46103 13.9145C7.28548 14.2645 7.12428 14.6233 6.97705 14.9892L12.4681 17.5318Z" fill="#F1F1F1"/>
</svg>
