<svg width="86" height="10" viewBox="0 0 86 10" fill="none" xmlns="http://www.w3.org/2000/svg">
<path d="M17.0794 0.000976562V10.001H13.8077V3.07349L9.50558 10.001H7.59529L3.2932 3.07349V10.001H0.0214844V0.000976562H4.86671L8.55115 6.10731L12.2342 0.000976562H17.0794Z" fill="#F1F1F1"/>
<path d="M30.3956 0.000976562H24.6074C23.2274 0.000976562 21.9763 0.561309 21.072 1.46558C20.1663 2.36985 19.6074 3.61949 19.6074 5.00098C19.6074 7.76251 21.8459 10.001 24.6074 10.001H30.3956C31.7771 10.001 33.0267 9.44064 33.931 8.53637C34.8353 7.6321 35.3956 6.38246 35.3956 5.00098C35.3956 2.23944 33.1572 0.000976562 30.3956 0.000976562ZM31.277 7.08467C30.7338 7.61921 29.9858 7.94881 29.1574 7.94881H25.847C24.1904 7.94881 22.8476 6.62895 22.8476 5.00098C22.8476 4.18699 23.1829 3.45039 23.7261 2.91728C24.2692 2.38275 25.0187 2.05314 25.847 2.05314H29.1574C30.8126 2.05314 32.1554 3.373 32.1554 5.00098C32.1554 5.81496 31.8201 6.55156 31.277 7.08467Z" fill="#F1F1F1"/>
<path d="M52.0237 0.000976562L45.7913 10.001H42.5181L36.2871 0.000976562H39.5388L44.1547 7.40854L48.7706 0.000976562H52.0237Z" fill="#F1F1F1"/>
<path d="M56.9836 2.24661V3.87888H85.3083V6.12307H56.9836V7.75535H85.3083V10.001H53.7319V0.000976562H85.3083V2.24661H56.9836Z" fill="#F1F1F1"/>
</svg>
