<svg width="1376" height="68" viewBox="0 0 1376 68" fill="none" xmlns="http://www.w3.org/2000/svg">
<path d="M115.205 0L115.205 67.5375H93.1084L93.1084 20.751L64.0532 67.5375H51.1515L22.0963 20.751L22.0963 67.5375H0L0 0L32.7234 0L57.6072 41.2406L82.4813 0L115.205 0Z" fill="#F1F1F1"/>
<path d="M205.139 0L166.047 0C156.727 0 148.277 3.78434 142.17 9.89156C136.053 15.9988 132.278 24.4385 132.278 33.7687C132.278 52.4194 147.396 67.5375 166.047 67.5375L205.139 67.5375C214.469 67.5375 222.909 63.7531 229.016 57.6459C235.123 51.5387 238.908 43.0989 238.908 33.7687C238.908 15.118 223.79 0 205.139 0ZM211.091 47.8415C207.423 51.4516 202.371 53.6777 196.777 53.6777H174.419C163.231 53.6777 154.162 44.7636 154.162 33.7687C154.162 28.2713 156.426 23.2965 160.095 19.696C163.763 16.0859 168.825 13.8598 174.419 13.8598L196.777 13.8598C207.956 13.8598 217.024 22.7738 217.024 33.7687C217.024 39.2662 214.76 44.241 211.091 47.8415Z" fill="#F1F1F1"/>
<path d="M351.21 0L309.118 67.5375L287.012 67.5375L244.929 0L266.89 0L298.065 50.0288L329.24 0L351.21 0Z" fill="#F1F1F1"/>
<path d="M385 15V26.3697L1376 26.3697V41.6303L385 41.6303V52.7297L1376 52.7297V68L363 68V0L1376 0V15.2703L385 15Z" fill="#F1F1F1"/>
</svg>
