<svg width="81" height="15" viewBox="0 0 81 15" fill="none" xmlns="http://www.w3.org/2000/svg">
<path d="M80.249 0.425218C80.0934 0.225505 79.9048 0.134332 79.8214 0.0952575C79.1483 -0.221678 77.7448 -0.132675 70.7585 6.71183C70.23 7.22847 69.8134 7.64527 69.6029 7.85583C71.1027 5.72629 73.8153 1.6083 72.8395 0.59671C72.8 0.555465 72.7627 0.527245 72.7189 0.494683C71.4295 -0.440928 69.059 1.02218 67.342 1.98602C66.9824 2.18573 65.9452 2.74145 65.022 3.8377C64.5528 4.39559 63.816 5.27042 64.0923 6.07144C64.1975 6.37318 64.4168 6.57941 64.6032 6.71183C64.9957 6.015 65.5746 5.16188 66.4276 4.33481C68.2828 2.53088 70.3725 1.86011 71.4711 1.59744C70.2322 3.72699 69.2191 5.56999 68.4472 7.01357C66.3421 10.9492 65.5286 12.8443 66.3268 13.9319C66.4934 14.1598 66.6952 14.2987 66.8289 14.3812C69.5524 9.35151 72.5829 6.11486 74.8021 4.1199C76.5212 2.5743 78.6044 0.989623 78.9816 1.3261C79.3653 1.67125 77.7777 3.83119 75.2187 9.11055C74.0477 11.5332 73.0061 13.9188 73.8701 14.7503C73.9754 14.8523 74.0872 14.9109 74.1639 14.9435C75.0323 11.8761 76.1221 9.55556 76.9861 7.96654C78.8588 4.53235 81.2117 1.67776 80.249 0.425218ZM12.6901 1.5562C11.8305 0.34924 10.2122 0.143015 9.43154 0.0735496C5.7717 -0.256411 3.19732 2.66981 2.88374 3.03668C2.41228 3.58806 1.1821 5.01644 1.64698 6.09315C1.74785 6.3276 1.90574 6.48823 2.02634 6.59026C1.95179 6.71617 1.84653 6.89634 1.72812 7.11342C0.642667 9.09318 -0.205959 10.7473 0.0440243 12.2864C0.19533 13.2177 0.903615 14.2901 1.886 14.7177C4.76081 15.9659 9.8701 11.8609 12.0322 7.35438C12.6397 6.09966 13.9597 3.34493 12.6901 1.5562ZM9.42277 8.5418C7.13345 12.0389 3.15346 14.9869 1.95617 14.1707C1.83118 14.0838 1.704 13.9362 1.58559 13.4586C0.936507 10.8776 2.81796 8.27697 3.31792 7.62356C3.49116 7.75815 3.74553 7.92313 4.08322 8.04252C4.28496 8.11416 4.46916 8.15323 4.62704 8.17494C4.32882 9.42314 4.49986 10.5411 5.16209 10.9861C5.26954 11.0577 5.39892 11.1185 5.56119 11.1576C5.53049 10.9058 5.51076 10.5823 5.5261 10.2046C5.53488 9.97452 5.559 9.46222 5.7103 8.93254C6.05019 7.75381 6.77821 7.36523 6.56989 6.94844C6.44271 6.69446 6.0787 6.65756 6.01291 6.65104C5.60505 6.60763 5.17964 6.87681 4.94062 7.33918C4.7937 7.36958 4.56345 7.39997 4.28496 7.35872C3.97577 7.31314 3.74333 7.19808 3.61176 7.11993C3.83762 6.73136 4.11611 6.3124 4.46258 5.8891C5.37918 4.7668 6.39666 4.05695 7.17511 3.61845C7.026 3.50991 6.79137 3.36664 6.47779 3.30803C5.79144 3.17778 5.21253 3.54898 4.60073 3.95492C4.14681 4.25666 3.47581 4.77982 2.82892 5.63294C3.09206 4.871 3.66658 3.57503 4.92088 2.48747C6.88347 0.785569 10.1859 -0.11748 11.3656 1.06343C12.8392 2.53523 10.5696 6.78997 9.42277 8.5418Z" fill="white"/>
<path d="M44.802 1.00078C44.6989 0.792384 44.5586 0.675161 44.4117 0.549255C43.1398 -0.542652 40.8286 0.236661 39.0261 0.840141C38.3529 1.0659 37.4714 1.40889 36.4714 1.92771C36.3903 1.83653 36.3026 1.7497 36.2105 1.66721C35.8289 1.31554 35.3619 1.03117 34.818 0.814092C34.0133 0.494985 33.1361 0.277906 32.1888 0.171538C31.2525 0.0521442 30.3118 0.0195824 29.3645 0.065169C28.4281 0.104243 27.6036 0.154171 26.8844 0.227978C26.2002 0.297443 25.4656 0.410325 24.6718 0.564451C23.878 0.705552 23.0623 0.898752 22.2246 1.13537C21.3957 1.36113 20.569 1.62814 19.7401 1.93422C18.9156 2.23379 18.1153 2.57894 17.35 2.96969C16.5803 3.34957 15.8632 3.77071 15.19 4.23526C14.5344 4.68678 13.9576 5.17955 13.4643 5.71356C13.2494 5.9263 13.0937 6.14772 12.9972 6.37348C12.9007 6.59925 12.8766 6.79896 12.9226 6.97914C12.938 7.02689 12.9577 7.07465 12.9884 7.11807C13.0805 7.25048 13.2121 7.30475 13.2823 7.33297C13.6199 7.46756 14.0914 7.31561 14.1462 7.29824C14.2646 7.01821 14.4642 6.61878 14.8107 6.21068C15.1725 5.78737 15.5189 5.5551 16.1066 5.16001C16.6219 4.81486 17.1789 4.49575 17.7797 4.19835C18.3784 3.88793 18.9705 3.61441 19.5603 3.37779C20.148 3.13901 20.7028 2.94364 21.2313 2.78951C21.7597 2.62236 22.2027 2.50731 22.5623 2.45304C21.9944 2.87417 21.2006 3.52107 20.3651 4.41326C17.9837 6.96394 15.3786 11.4227 16.8127 13.2809C17.0539 13.5914 17.521 13.9778 18.5319 14.1232C18.5648 13.6565 18.624 13.155 18.7249 12.6232C19.0077 11.1036 19.5121 9.84675 20.0099 8.88292C22.2158 11.1036 24.8889 12.8251 28.0312 14.0516C28.4873 14.2383 28.9566 14.4141 29.4346 14.566C29.9149 14.7202 30.3973 14.8265 30.8907 14.8873C31.3819 14.959 31.8753 14.959 32.3665 14.8873C33.0594 14.7853 33.5418 14.5443 33.7501 14.4315C33.7896 14.4119 33.8225 14.3902 33.8225 14.3902C34.0242 14.2686 34.1712 14.1362 34.2676 14.0407C33.1252 14.2361 32.1976 14.1645 31.5924 14.0689C30.7635 13.9387 30.1407 13.7108 29.5969 13.498C28.9237 13.2375 28.2483 12.9162 27.5642 12.5364C26.8932 12.1543 26.2397 11.757 25.6038 11.3424C24.9679 10.9169 24.3692 10.4828 23.8056 10.0399C23.2421 9.60145 22.7399 9.18466 22.2926 8.79174C23.3715 8.6615 24.4832 8.50737 25.6191 8.33154C26.7594 8.15136 27.8953 7.92126 29.0202 7.63688C30.1605 7.33732 31.2679 6.97696 32.3489 6.54932C33.4278 6.10865 34.4409 5.57463 35.386 4.94293C35.614 4.79098 35.8421 4.61732 36.0702 4.42846C36.3114 4.23743 36.5087 4.03771 36.6644 3.82498C36.7412 3.70993 36.8026 3.59487 36.8486 3.47331V3.47114C39.3177 1.99283 42.7583 0.820604 43.2451 1.51309C43.5762 1.98198 42.3373 3.0131 39.9405 6.11299C39.1511 7.13543 34.0988 13.6717 35.1886 14.8179C35.2544 14.8895 35.329 14.9242 35.3663 14.9373C36.853 12.1652 38.3463 10.1268 39.4296 8.7874C42.3965 5.11443 45.5783 2.55941 44.802 1.00078ZM24.3846 7.24831C22.8408 7.48276 21.5339 7.56091 20.6063 7.58478C21.0405 6.8185 21.6896 5.85032 22.6456 4.87564C23.4526 4.05291 24.2552 3.4516 24.9196 3.02178C24.9086 2.91325 24.8692 2.65926 24.6762 2.41613C24.4372 2.11439 24.128 2.01888 24.0227 1.99283C25.1455 1.69543 26.755 1.37633 28.6979 1.33291C30.871 1.28732 35.4277 1.54782 35.6031 2.68965C35.8158 4.05291 29.7767 6.42992 24.3846 7.24831Z" fill="white"/>
<path d="M60.4368 8.84825C59.358 10.1876 57.8646 12.226 56.3779 15.0003C56.3384 14.9851 56.2661 14.9503 56.2003 14.8809C55.1083 13.7325 60.1605 7.19628 60.95 6.17383C63.3489 3.07395 64.5835 2.04282 64.2567 1.5761C63.7853 0.903156 60.5245 1.98638 58.0795 3.40608C58.062 3.64269 58.0203 3.83155 57.9918 3.94877C58.0225 3.95095 58.687 4.00956 58.9391 4.55008C59.0619 4.81058 59.0312 5.06022 59.0115 5.17093C56.7638 5.24039 54.946 5.51174 53.5777 5.79612C53.4198 5.82868 53.2553 5.86558 53.047 5.91334C50.9967 6.40394 49.4288 7.25272 48.3083 8.02335C48.3061 7.96691 48.2995 7.84317 48.3214 7.69122C48.6504 5.29466 54.2399 4.23098 54.56 4.17237C55.3802 4.02475 56.0468 3.97699 56.413 3.95746C57.13 2.6463 57.0314 2.09926 56.8274 1.84094C55.7946 0.508072 49.0845 2.81996 45.019 7.50887C43.2056 9.59934 41.6223 12.5017 42.2561 13.1139C42.9972 13.8259 47.0035 11.6421 49.8235 9.35621C51.9001 7.67385 53.6829 5.6485 54.8912 6.18469C55.174 6.31059 55.3473 6.54287 55.4503 6.72087C54.9964 7.13984 54.5425 7.60873 54.0952 8.13623C52.0778 10.5176 51.1436 13.0639 50.6875 14.9373C50.4836 14.9243 50.1919 14.8722 49.9551 14.666C49.4573 14.2361 49.5406 13.4395 49.6327 12.658C49.7051 12.0306 49.8937 11.0733 50.4419 9.95318C49.9441 10.409 49.1723 11.0668 48.1504 11.7484C46.2119 13.04 43.8217 14.6312 41.9381 13.8346C41.2759 13.5545 40.4163 12.8707 40.265 11.9655C40.1838 11.4792 40.3044 10.9778 40.3922 10.6978C40.5391 10.2376 40.7562 9.75564 41.05 9.24984C41.414 8.62031 41.835 8.02986 42.3109 7.47414C42.7999 6.90539 43.3152 6.36269 43.8656 5.8417C44.5607 5.17744 45.3216 4.52838 46.1483 3.88582C46.9926 3.23458 47.8631 2.63979 48.7644 2.11012C49.6788 1.57827 50.6129 1.12675 51.5624 0.7512C52.8211 0.25626 53.6303 0.0847677 54.4 0.0283272C54.7903 0.000106899 54.9833 -0.0107471 55.2552 0.0283272C56.1652 0.158575 57.266 0.729492 57.7879 1.82791C58.6563 1.3981 59.4237 1.10504 60.029 0.900985C61.8271 0.297505 64.1405 -0.481809 65.4102 0.610099C65.5571 0.736005 65.6974 0.853227 65.8005 1.06162C66.5833 2.61808 63.3993 5.1731 60.4368 8.84825Z" fill="white"/>
</svg>
